<svg width="50" height="50" viewBox="0 0 50 50" fill="none" xmlns="http://www.w3.org/2000/svg">
<rect width="50" height="50" rx="10" fill="#FF971A" fill-opacity="0.15"/>
<path d="M33.953 22.6482C34.3274 20.1264 32.4213 18.7708 29.8149 17.8665L30.6604 14.4504L28.596 13.9323L27.7728 17.2584C27.2301 17.1221 26.6727 16.9936 26.1188 16.8662L26.9479 13.5182L24.8847 13L24.0387 16.4149C23.5896 16.3119 23.1485 16.2101 22.7205 16.1029L22.7229 16.0921L19.8759 15.376L19.3268 17.597C19.3268 17.597 20.8584 17.9507 20.8261 17.9725C21.6621 18.1826 21.8133 18.74 21.7882 19.1819L20.825 23.0736C20.8826 23.0883 20.9573 23.1096 21.0397 23.1429C20.9708 23.1257 20.8975 23.1069 20.8215 23.0886L19.4714 28.5403C19.3693 28.7961 19.1099 29.18 18.5254 29.0342C18.5461 29.0644 17.025 28.6571 17.025 28.6571L16 31.0374L18.6866 31.712C19.1863 31.8382 19.6761 31.9703 20.1584 32.0945L19.3041 35.5498L21.3662 36.0679L22.2122 32.6493C22.7756 32.8034 23.3223 32.9455 23.8574 33.0794L23.0143 36.4819L25.0788 37L25.933 33.5513C29.4534 34.2223 32.1004 33.9518 33.2146 30.7445C34.1123 28.1623 33.1699 26.6728 31.3178 25.7016C32.6668 25.3882 33.6821 24.4943 33.953 22.6482ZM29.2362 29.3105C28.5982 31.8927 24.2818 30.4968 22.8824 30.1468L24.0161 25.5692C25.4154 25.9211 29.9029 26.6174 29.2362 29.3105ZM29.8746 22.6108C29.2926 24.9596 25.7001 23.7663 24.5347 23.4737L25.5625 19.3221C26.7279 19.6147 30.4807 20.1608 29.8746 22.6108Z" fill="#F7931A"/>
</svg>
