<svg width="50" height="50" viewBox="0 0 50 50" fill="none" xmlns="http://www.w3.org/2000/svg">
<rect width="50" height="50" rx="10" fill="#212227"/>
<path d="M34.1912 14.1667H37.949L30.1287 21.9098C27.2966 24.7124 22.705 24.7124 19.8709 21.9098L12.0475 14.1667H15.8084L21.7498 20.0487C22.6155 20.9019 23.7821 21.3801 24.9975 21.3801C26.213 21.3801 27.3796 20.9019 28.2452 20.0487L34.1912 14.1667Z" fill="white"/>
<path d="M15.7604 35.6979H12L19.8711 27.907C22.7032 25.1044 27.2948 25.1044 30.1289 27.907L38 35.6979H34.2422L28.25 29.7682C27.3843 28.915 26.2177 28.4367 25.0023 28.4367C23.7869 28.4367 22.6202 28.915 21.7546 29.7682L15.7604 35.6979Z" fill="white"/>
</svg>
