<svg width="24" height="24" viewBox="0 0 24 24" fill="none" xmlns="http://www.w3.org/2000/svg">
<path d="M12.0354 0.129977V0.1418C12.0472 0.200913 12.0472 0.271849 12.0472 0.342785V8.86692C12.0354 8.91422 11.9999 8.92604 11.9644 8.94968C11.7162 9.06791 11.4797 9.17431 11.2314 9.28072C10.8886 9.43441 10.5339 9.59993 10.191 9.75362L8.94965 10.3211C8.60679 10.4748 8.26394 10.6285 7.9329 10.7822C7.53093 10.9714 7.11714 11.1487 6.71517 11.3379C6.37231 11.4916 6.02945 11.6571 5.67477 11.8108C5.39103 11.9408 5.10729 12.059 4.83536 12.1891C4.81172 12.2009 4.78807 12.2127 4.76443 12.2127C4.75261 12.2127 4.75261 12.2127 4.74078 12.2009L5.06 11.6689C5.67477 10.6521 6.27773 9.64722 6.89251 8.63047C7.54275 7.54279 8.20482 6.4551 8.85507 5.36742C9.45802 4.36249 10.0728 3.35756 10.6758 2.35264C11.1132 1.61963 11.5625 0.886627 11.9999 0.153622C12.0117 0.129977 12.0235 0.118154 12.0235 0.0945091H12.0354C12.0235 0.106332 12.0354 0.118154 12.0354 0.129977Z" fill="#8A92B2"/>
<path d="M19.2946 12.201L19.3064 12.2128L17.5685 13.2414L12.1064 16.469C12.0828 16.4808 12.0591 16.4926 12.0473 16.5044C12.0118 16.5044 12.0118 16.469 12.0118 16.4571V16.3507V9.04433C12.0118 9.00886 12.0118 8.96157 12.0237 8.9261C12.0355 8.87881 12.071 8.89064 12.1064 8.90246C12.2601 8.97339 12.4256 9.04433 12.5793 9.11527C13.0404 9.32807 13.5015 9.54088 13.9626 9.74187C14.3646 9.91921 14.7547 10.1084 15.1567 10.2857C15.5586 10.463 15.9606 10.6522 16.3626 10.8296C16.7054 10.9832 17.0601 11.1488 17.403 11.3025C17.7458 11.4562 18.1005 11.6217 18.4434 11.7754C18.7153 11.8936 18.9872 12.0236 19.2591 12.1419C19.2591 12.1773 19.271 12.1892 19.2946 12.201Z" fill="#454A75"/>
<path d="M12.0355 23.8463C12.0355 23.8581 12.0237 23.8699 12.0237 23.8818H12.0118C12.0118 23.8581 11.9882 23.8463 11.9764 23.8227C11.2434 22.7941 10.5104 21.7537 9.77736 20.7251C9.03253 19.6729 8.27588 18.6089 7.53105 17.5566C6.80987 16.5399 6.07687 15.5113 5.35568 14.4946C5.16652 14.2226 4.97736 13.9625 4.7882 13.6906C4.77637 13.667 4.76455 13.6552 4.74091 13.6197C4.77637 13.6197 4.80002 13.6433 4.81184 13.6552C5.84041 14.2581 6.85716 14.8611 7.88573 15.464C9.068 16.1616 10.2384 16.8591 11.4207 17.5566L12.0237 17.9113C12.0473 17.935 12.0473 17.9586 12.0473 17.9823V23.6808C12.0473 23.7399 12.0473 23.799 12.0355 23.8463Z" fill="#8A92B2"/>
<path d="M4.72906 12.2246V12.2128C5.10739 12.0473 5.47389 11.87 5.85222 11.7044C6.33695 11.4798 6.82168 11.267 7.30641 11.0424C7.67291 10.8769 8.05123 10.6995 8.41774 10.534C8.96158 10.2857 9.4936 10.0493 10.0374 9.80099C10.4039 9.63547 10.7704 9.46995 11.1488 9.29261C11.4089 9.17439 11.6808 9.05616 11.9409 8.93793C11.9645 8.92611 12 8.91429 12.0118 8.89064C12.0236 8.89064 12.0236 8.90247 12.0118 8.91429V16.4217C12.0118 16.4571 12 16.4926 12.0236 16.5163C12 16.5517 11.9764 16.5163 11.9645 16.5044C11.8581 16.4453 11.7517 16.3862 11.6453 16.3153C9.36355 14.9675 7.06995 13.6079 4.78818 12.2601C4.77636 12.2483 4.75271 12.2365 4.72906 12.2246Z" fill="#62688F"/>
<path d="M19.2708 13.6197H19.2826C19.2826 13.6433 19.259 13.667 19.2471 13.6906C17.0718 16.7527 14.8964 19.8266 12.721 22.8887C12.4964 23.2079 12.26 23.5271 12.0353 23.8463C12.0235 23.8345 12.0235 23.8227 12.0235 23.8108V23.7399V18.0059V17.8995C12.5201 17.6039 13.0048 17.3202 13.5013 17.0246C15.4166 15.8896 17.3319 14.7665 19.2353 13.6315C19.2471 13.6433 19.259 13.6315 19.2708 13.6197Z" fill="#62688F"/>
<path d="M12.0236 8.91427V8.89063V8.81969V0.236442C12.0236 0.200974 12.0118 0.177329 12.0355 0.141861C14.4355 4.1261 16.8355 8.09851 19.2236 12.0827C19.2473 12.1182 19.2828 12.1655 19.2946 12.2128C19.1291 12.1537 18.9754 12.0709 18.8217 12C18.6325 11.9172 18.4315 11.8226 18.2424 11.7399C18.1241 11.6808 17.9941 11.6335 17.8759 11.5744C17.6749 11.4798 17.4739 11.397 17.2729 11.3025C17.1547 11.2552 17.0365 11.196 16.9182 11.1369L16.1379 10.7823C16.0079 10.7231 15.8778 10.664 15.736 10.6049L15.1685 10.3566C15.0502 10.3093 14.932 10.2502 14.8138 10.1911L14.0335 9.83644C13.9034 9.77733 13.7734 9.71821 13.6315 9.6591L13.064 9.41082C12.934 9.35171 12.8158 9.2926 12.6857 9.23349C12.4611 9.12708 12.2365 9.02068 12 8.9261C12.0355 8.91427 12.0236 8.91427 12.0236 8.91427Z" fill="#62688F"/>
</svg>
